<svg xmlns="http://www.w3.org/2000/svg" style="display: none;">
  <symbol id="window-control_close" viewBox="0 0 30 30">
      <line x1="19.5" y1="10.5" x2="10.5" y2="19.5" fill="none" stroke="currentcolor" stroke-linecap="round"/>
<line x1="10.5" y1="10.5" x2="19.5" y2="19.5" fill="none" stroke="currentcolor" stroke-linecap="round"/>
  </symbol>

  <symbol id="window-control_maximize" viewBox="0 0 30 30">
      <rect x="10.5" y="10.5" width="9" height="9" fill="none" stroke="currentcolor" />
  </symbol>

  <symbol id="window-control_restore" viewBox="0 0 30 30">
      <polyline points="13.5 12 13.5 9.5 20.5 9.5 20.5 16.5 18 16.5" fill="none" stroke="currentcolor"/>
<rect x="9.5" y="13.5" width="7" height="7" fill="none" stroke="currentcolor"/>
  </symbol>

  <symbol id="window-control_feedback" viewBox="0 0 456.828 456.828" x="0px" y="0px">
<g>
	<g>
		<path fill="currentcolor" stroke="currentcolor" d="M451.383,247.54c-3.606-3.617-7.898-5.427-12.847-5.427h-63.953v-83.939l49.396-49.394
			c3.614-3.615,5.428-7.898,5.428-12.85c0-4.947-1.813-9.229-5.428-12.847c-3.614-3.616-7.898-5.424-12.847-5.424
			s-9.233,1.809-12.847,5.424l-49.396,49.394H107.923L58.529,83.083c-3.617-3.616-7.898-5.424-12.847-5.424
			c-4.952,0-9.233,1.809-12.85,5.424c-3.617,3.617-5.424,7.9-5.424,12.847c0,4.952,1.807,9.235,5.424,12.85l49.394,49.394v83.939
			H18.273c-4.949,0-9.231,1.81-12.847,5.427C1.809,251.154,0,255.442,0,260.387c0,4.949,1.809,9.237,5.426,12.848
			c3.616,3.617,7.898,5.431,12.847,5.431h63.953c0,30.447,5.522,56.53,16.56,78.224l-57.67,64.809
			c-3.237,3.81-4.712,8.234-4.425,13.275c0.284,5.037,2.235,9.273,5.852,12.703c3.617,3.045,7.707,4.571,12.275,4.571
			c5.33,0,9.897-1.991,13.706-5.995l52.246-59.102l4.285,4.004c2.664,2.479,6.801,5.564,12.419,9.274
			c5.617,3.71,11.897,7.423,18.842,11.143c6.95,3.71,15.23,6.852,24.84,9.418c9.614,2.573,19.273,3.86,28.98,3.86V169.034h36.547
			V424.85c9.134,0,18.363-1.239,27.688-3.717c9.328-2.471,17.135-5.232,23.418-8.278c6.275-3.049,12.47-6.519,18.555-10.42
			c6.092-3.901,10.089-6.612,11.991-8.138c1.909-1.526,3.333-2.762,4.284-3.71l56.534,56.243c3.433,3.617,7.707,5.424,12.847,5.424
			c5.141,0,9.422-1.807,12.854-5.424c3.607-3.617,5.421-7.902,5.421-12.851s-1.813-9.232-5.421-12.847l-59.388-59.669
			c12.755-22.651,19.13-50.251,19.13-82.796h63.953c4.949,0,9.236-1.81,12.847-5.427c3.614-3.614,5.432-7.898,5.432-12.847
			C456.828,255.445,455.011,251.158,451.383,247.54z"/>
		<path fill="currentcolor" stroke="currentcolor" d="M293.081,31.27c-17.795-17.795-39.352-26.696-64.667-26.696c-25.319,0-46.87,8.901-64.668,26.696
			c-17.795,17.797-26.691,39.353-26.691,64.667h182.716C319.771,70.627,310.876,49.067,293.081,31.27z"/>
	</g>
</g>
<g>
</g>
<g>
</g>
<g>
</g>
<g>
</g>
<g>
</g>
<g>
</g>
<g>
</g>
<g>
</g>
<g>
</g>
<g>
</g>
<g>
</g>
<g>
</g>
<g>
</g>
<g>
</g>
<g>
</g>
  </symbol>

  <symbol id="window-control_minimize" viewBox="0 0 30 30">
      <line x1="10" y1="19.5" x2="20" y2="19.5" fill="none" stroke="currentcolor"/>
  </symbol>

  <symbol id="window-control_support" viewBox="0 0 30 30">
      <rect x="13.5" y="19" width="2" height="2" fill="currentcolor"/>
      <path d="M16.5,9H12v1h4.5A1.5,1.5,0,0,1,18,11.5v1A1.5,1.5,0,0,1,16.5,14H14v3h1V15h1.5A2.5,2.5,0,0,0,19,12.5v-1A2.5,2.5,0,0,0,16.5,9Z" fill="currentcolor"/>
  </symbol>

  <symbol id="window-control_settings" viewBox="0 0 30 30">
      <path d="M22,16.3V13.7H19.81a4.94,4.94,0,0,0-.49-1.18L20.87,11,19,9.13l-1.55,1.55a5,5,0,0,0-1.18-.49V8H13.7v2.19a5,5,0,0,0-1.18.49L11,9.13,9.13,11l1.55,1.55a5,5,0,0,0-.49,1.18H8v2.6h2.19a5,5,0,0,0,.49,1.18L9.13,19,11,20.87l1.55-1.55a4.94,4.94,0,0,0,1.18.49V22h2.6V19.81a4.94,4.94,0,0,0,1.18-.49L19,20.87,20.87,19l-1.55-1.55a4.94,4.94,0,0,0,.49-1.18Zm-7,1.45A2.75,2.75,0,1,1,17.75,15,2.75,2.75,0,0,1,15,17.75Z" fill="currentcolor"/>
</symbol>
</svg>
